<svg id="Layer_1" data-name="Layer 1" xmlns="http://www.w3.org/2000/svg" viewBox="0 0 180 180">
  <defs>
    <style>
      .cls-1 {
        fill: #fff;
      }
    </style>
  </defs>
  <title>blog-square</title>
  <g>
    <path class="cls-1" d="M186.48,54A3.52,3.52,0,0,0,190,50.43V13.52A3.51,3.51,0,0,0,186.48,10h-173A3.51,3.51,0,0,0,10,13.52v173A3.51,3.51,0,0,0,13.52,190H178.84A11.18,11.18,0,0,0,190,178.84V81.15a3.42,3.42,0,0,0-.36-1.54L175.58,50.78a3.52,3.52,0,0,0-6.32,0L155.2,79.61a3.55,3.55,0,0,0-.36,1.54v97.69a11.13,11.13,0,0,0,.8,4.13H17V42.33H183v8.09A3.52,3.52,0,0,0,186.48,54Zm-14.06,6.39,8.44,17.29H164ZM161.88,84.66H183v78.58h-8.56v-30.4a3.52,3.52,0,0,0-7,0v30.4h-5.5Zm0,85.61H183v8.57a4.13,4.13,0,0,1-4.13,4.13H166a4.13,4.13,0,0,1-4.13-4.13Zm-144.5-135-.35,0V17H183V35.31Z" transform="translate(-10 -10)"/>
    <path class="cls-1" d="M167.5,22.66H88.07a3.52,3.52,0,1,0,0,7H167.5a3.52,3.52,0,1,0,0-7Z" transform="translate(-10 -10)"/>
    <path class="cls-1" d="M49.05,23.69a3.53,3.53,0,0,0-2.49-1,3.52,3.52,0,0,0-3.51,3.51,3.52,3.52,0,0,0,3.51,3.52,3.51,3.51,0,0,0,2.49-6Z" transform="translate(-10 -10)"/>
    <path class="cls-1" d="M35,23.69a3.52,3.52,0,1,0-5,5,3.52,3.52,0,0,0,6-2.49A3.55,3.55,0,0,0,35,23.69Z" transform="translate(-10 -10)"/>
    <path class="cls-1" d="M63.11,23.69a3.51,3.51,0,0,0-5,0,3.52,3.52,0,1,0,5,0Z" transform="translate(-10 -10)"/>
    <path class="cls-1" d="M81.72,52.19H32.5A3.52,3.52,0,0,0,29,55.7v50.63a3.52,3.52,0,0,0,3.52,3.51H81.72a3.51,3.51,0,0,0,3.51-3.51V55.7A3.51,3.51,0,0,0,81.72,52.19ZM78.2,102.81H36V59.22H78.2Z" transform="translate(-10 -10)"/>
    <path class="cls-1" d="M170.9,118.4a3.53,3.53,0,0,0-3.52,3.52v0a3.52,3.52,0,0,0,7,0v0A3.52,3.52,0,0,0,170.9,118.4Z" transform="translate(-10 -10)"/>
    <path class="cls-1" d="M143.34,52.19H98.24a3.52,3.52,0,0,0,0,7h45.1a3.52,3.52,0,1,0,0-7Z" transform="translate(-10 -10)"/>
    <path class="cls-1" d="M143.34,69.06H98.24a3.52,3.52,0,0,0,0,7h45.1a3.52,3.52,0,1,0,0-7Z" transform="translate(-10 -10)"/>
    <path class="cls-1" d="M143.34,85.94H98.24a3.52,3.52,0,0,0,0,7h45.1a3.52,3.52,0,1,0,0-7Z" transform="translate(-10 -10)"/>
    <path class="cls-1" d="M115.55,102.81H98.24a3.52,3.52,0,0,0,0,7h17.31a3.52,3.52,0,0,0,0-7Z" transform="translate(-10 -10)"/>
    <path class="cls-1" d="M143.34,126.72H100.88a3.52,3.52,0,1,0,0,7h42.46a3.52,3.52,0,1,0,0-7Z" transform="translate(-10 -10)"/>
    <path class="cls-1" d="M81.72,126.72H49a3.52,3.52,0,0,0,0,7H81.72a3.52,3.52,0,0,0,0-7Z" transform="translate(-10 -10)"/>
    <path class="cls-1" d="M35,127.75a3.52,3.52,0,1,0-5,5,3.52,3.52,0,0,0,5,0,3.51,3.51,0,0,0,0-5Z" transform="translate(-10 -10)"/>
    <path class="cls-1" d="M143.34,143.59H100.88a3.52,3.52,0,0,0,0,7h42.46a3.52,3.52,0,1,0,0-7Z" transform="translate(-10 -10)"/>
    <path class="cls-1" d="M81.72,143.59H32.5a3.52,3.52,0,0,0,0,7H81.72a3.52,3.52,0,0,0,0-7Z" transform="translate(-10 -10)"/>
    <path class="cls-1" d="M143.34,160.47H100.88a3.52,3.52,0,1,0,0,7h42.46a3.52,3.52,0,1,0,0-7Z" transform="translate(-10 -10)"/>
    <path class="cls-1" d="M81.72,160.47H32.5a3.52,3.52,0,1,0,0,7H81.72a3.52,3.52,0,0,0,0-7Z" transform="translate(-10 -10)"/>
    <path class="cls-1" d="M72,93a1.11,1.11,0,0,0,.53,1L76,96.38v.09H61.81v-.09L65.26,94a1.1,1.1,0,0,0,.54-1V73.06c0-1,0-2,.13-2.87L55.41,96.74h-.08l-10.44-24c-.27-.56-.59-1.4-1-2.5V90.61a1.71,1.71,0,0,0,.11.74,3.85,3.85,0,0,0,.56.65l4.34,4.38v.09H38v-.09L42.39,92A2,2,0,0,0,43,90.6V69.79a1.55,1.55,0,0,0-.44-1.21l-3.75-3.49V65H48.3l9.75,22.6,9-22.6H76v.09l-3.45,2.64a1.11,1.11,0,0,0-.53,1Z" transform="translate(-10 -10)"/>
  </g>
</svg>
