<svg id="Layer_1" data-name="Layer 1" xmlns="http://www.w3.org/2000/svg" viewBox="0 0 180 180">
  <defs>
    <style>
      .cls-1 {
        fill: #fff;
      }
    </style>
  </defs>
  <title>events-square</title>
  <g>
    <path class="cls-1" d="M171.33,85.18l-7-1.4a5.79,5.79,0,0,1-4.56-4.56l-1.28-6.43a20.41,20.41,0,0,0,6.3-7.63h2a11.62,11.62,0,0,0,11.62-11.61A11.5,11.5,0,0,0,176,46.6l1.06-3.18A25.37,25.37,0,0,0,153,10h-7.7a22.4,22.4,0,0,0-18,9.06l-2.11.53a14.11,14.11,0,0,0-4.5,2H15.81V97.1H44l-4.35,17.42H10v5.8H190V108a23.28,23.28,0,0,0-18.67-22.77ZM86.12,97.1l4.35,17.42H60.17L64.53,97.1Zm6,0h13.52A23.12,23.12,0,0,0,102.9,108v6.57H96.46ZM108.71,108a17.46,17.46,0,0,1,14-17.08l2.46-.49,11,24.14H108.71Zm27-21.7L141.1,89l-7.48,6L131,89.12a11.61,11.61,0,0,0,4.72-2.87ZM147.26,97.1h-1.62l-1.14-3.43,1.95-1.56,2,1.56Zm-6.69,3.14-1.22,7.31-3.25-7.16,3.57-2.85ZM146,102.9h.89l1.93,11.62h-4.76Zm6.33-2.66.9-2.7,3.57,2.85-3.25,7.16Zm9.59-11.12-2.64,5.82-7.48-6,5.4-2.7a11.7,11.7,0,0,0,4.72,2.86Zm-7.85-8.76c.06.29.16.57.23.85l-7.86,3.93-7.86-3.93c.08-.28.17-.56.23-.85l1-4.74a20,20,0,0,0,13.36,0ZM161,56.45a14.52,14.52,0,1,1-29,0V45.2a8.69,8.69,0,0,1,6.55-8.44,8.73,8.73,0,0,0,8,5.18h11.61a2.91,2.91,0,0,1,2.91,2.9Zm5.8,2.9h-.23a19.79,19.79,0,0,0,.23-2.9V47.74a5.81,5.81,0,1,1,0,11.61Zm-40.2-34.13,4.25-1.06.62-.94a16.64,16.64,0,0,1,13.86-7.41H153a19.6,19.6,0,0,1,19.58,19.57,19.82,19.82,0,0,1-1,6.2l-.42,1.23a11.42,11.42,0,0,0-4.39-.87h-.53a8.69,8.69,0,0,0-8.18-5.81H146.45a2.91,2.91,0,0,1,0-5.81h2.9v-5.8h-2.9a8.72,8.72,0,0,0-8.39,6.36l-.94.23a14.49,14.49,0,0,0-10.58,10.83h-.41a11.58,11.58,0,0,0-4.13.79,38,38,0,0,1-1.68-9.5,8.24,8.24,0,0,1,6.25-8Zm-.44,22.52v8.71a19.79,19.79,0,0,0,.23,2.9h-.23a5.81,5.81,0,1,1,0-11.61ZM21.61,27.42h94.21a13.84,13.84,0,0,0-1.3,5.81c0,4.66,1.64,10.41,2.52,13.17a11.56,11.56,0,0,0,9.09,18.76h2a20.41,20.41,0,0,0,6.3,7.63l-1.29,6.43a5.79,5.79,0,0,1-4.55,4.56l-7,1.4A23,23,0,0,0,110,91.29H21.61ZM50,97.1h8.53l-4.36,17.42H45.65Zm134.18,17.42H156.77l11-24.14,2.45.49a17.46,17.46,0,0,1,14,17.08Z" transform="translate(-10 -10)"/>
    <path class="cls-1" d="M108.71,39H73.87V50.65H62.26V33.23H27.42V68.06H44.84V85.48H85.48V68.06h23.23ZM33.23,39H56.45V62.26H33.23ZM79.68,79.68h-29V68.06H62.26V56.45H79.68ZM102.9,62.26H85.48V50.65h-5.8V44.84H102.9Z" transform="translate(-10 -10)"/>
    <path class="cls-1" d="M171.1,162a20.4,20.4,0,0,0,7.29-15.54v-2.9A17.44,17.44,0,0,0,161,126.13h-5.81a17.43,17.43,0,0,0-17.42,17.42v2.9A20.4,20.4,0,0,0,145,162a26,26,0,0,0-16,13.15,26.22,26.22,0,0,0-16-13.13,20.28,20.28,0,0,0,7.27-15.56v-2.9a17.43,17.43,0,0,0-17.42-17.42H97.1a17.43,17.43,0,0,0-17.42,17.42v2.9A20.28,20.28,0,0,0,87,162a26.21,26.21,0,0,0-16,13.15A26.27,26.27,0,0,0,55,162a20.28,20.28,0,0,0,7.26-15.54v-5.8a14.53,14.53,0,0,0-14.52-14.52H27.42a5.81,5.81,0,0,0-5.81,5.81v14.51A20.29,20.29,0,0,0,28.89,162,26.16,26.16,0,0,0,10,187.1V190H190v-2.9A26.06,26.06,0,0,0,171.1,162Zm-7.23,4.78a5.81,5.81,0,1,1-11.61,0,5.53,5.53,0,0,1,.11-.83,20,20,0,0,0,11.39,0A5.53,5.53,0,0,1,163.87,166.77Zm-20.32-20.32v-2.9a11.62,11.62,0,0,1,11.61-11.61H161a11.62,11.62,0,0,1,11.61,11.61v2.9a14.52,14.52,0,0,1-29,0Zm-58.07,0v-2.9A11.62,11.62,0,0,1,97.1,131.94h5.8a11.62,11.62,0,0,1,11.62,11.61v2.9a14.52,14.52,0,0,1-29,0Zm8.71,20.32h11.62a20.35,20.35,0,0,1,20.09,17.42H74.1a20.35,20.35,0,0,1,20.09-17.42ZM27.42,146.45V131.94H47.74a8.72,8.72,0,0,1,8.71,8.71v5.8a14.52,14.52,0,1,1-29,0ZM16,184.19a20.37,20.37,0,0,1,20.12-17.42H47.74a20.37,20.37,0,0,1,20.12,17.42Zm116.15,0a20.26,20.26,0,0,1,14.37-16.6,11.56,11.56,0,0,0,23.06,0A20.26,20.26,0,0,1,184,184.19Z" transform="translate(-10 -10)"/>
  </g>
</svg>
