<svg id="Layer_1" data-name="Layer 1" xmlns="http://www.w3.org/2000/svg" viewBox="0 0 480 480">
  <defs>
    <style>
      .cls-1 {
        fill: #fff;
      }
    </style>
  </defs>
  <title>link</title>
  <path class="cls-1" d="M302.88,197.09A108.5,108.5,0,0,0,284.08,182a112,112,0,0,0-139.6,15.11L42.73,298.91A112,112,0,0,0,201,457.37l84-84a8,8,0,0,0-5.68-13.68h-3.2a134.52,134.52,0,0,1-51.2-9.91,8,8,0,0,0-8.72,1.76L155.84,412a48,48,0,0,1-67.91-67.9L190.08,242a48,48,0,0,1,67.84,0,32.79,32.79,0,0,0,45,0,31.68,31.68,0,0,0,0-44.95Z" transform="translate(-10 -10)"/>
  <path class="cls-1" d="M457.2,42.8a112,112,0,0,0-158.4,0l-83.92,83.83a8,8,0,0,0,5.84,13.67h3a134.52,134.52,0,0,1,51.12,10,8,8,0,0,0,8.72-1.76l60.24-60.15a48,48,0,1,1,67.92,67.91l-75,74.95L336,232,309.76,258a48,48,0,0,1-67.84,0,32.81,32.81,0,0,0-45,0,31.89,31.89,0,0,0,0,45.11,111,111,0,0,0,32,22.4c1.68.8,3.36,1.44,5,2.16s3.44,1.28,5.12,1.92,3.44,1.2,5.12,1.68l4.72,1.28c3.2.8,6.4,1.44,9.68,2a113.33,113.33,0,0,0,11.92,1.12h6.08l4.8-.56c1.76-.08,3.6-.48,5.68-.48h2.72l5.52-.8,2.56-.48,4.64-1h.88A112.05,112.05,0,0,0,355.36,303L457.19,201.17A112,112,0,0,0,457.2,42.8Z" transform="translate(-10 -10)"/>
</svg>
