<svg id="Capa_1" data-name="Capa 1" xmlns="http://www.w3.org/2000/svg" viewBox="0 0 473 473">
  <defs>
    <style>
      .cls-1 {
        fill: #fff;
      }
    </style>
  </defs>
  <title>www</title>
  <path class="cls-1" d="M457.29,216a13.86,13.86,0,0,0-18.67,5.95l-16.13,31.21-15.52-31a13.86,13.86,0,0,0-24.79,0l-15.32,30.64-15.32-30.64a13.87,13.87,0,0,0-13.24-7.64l-.84.06A13.84,13.84,0,0,0,324.87,225,13.84,13.84,0,0,0,299,222.09l-15.33,30.64-15.32-30.64a13.85,13.85,0,0,0-24.78,0l-15.32,30.64L213,222.09A13.85,13.85,0,0,0,187.13,225a13.86,13.86,0,0,0-12.59-10.45l-.84-.05a13.87,13.87,0,0,0-13.24,7.64l-15.32,30.64-15.32-30.64a13.87,13.87,0,0,0-24.79,0l-15.52,31-16.13-31.2a13.86,13.86,0,0,0-24.62,12.72L77.4,290.08a13.86,13.86,0,0,0,24.71-.17l15.32-30.64,15.32,30.64a13.87,13.87,0,0,0,24.79,0l25.82-51.64a13.85,13.85,0,0,0,3.78-6.59,13.55,13.55,0,0,0,1,2.8l27.71,55.43a13.87,13.87,0,0,0,24.79,0L256,259.27l15.32,30.64a13.87,13.87,0,0,0,24.79,0l27.71-55.43a13.55,13.55,0,0,0,1-2.8,13.73,13.73,0,0,0,3.79,6.59l25.82,51.64a13.86,13.86,0,0,0,24.78,0l15.32-30.64,15.32,30.64a13.86,13.86,0,0,0,24.71.17l28.64-55.44A13.86,13.86,0,0,0,457.29,216Z" transform="translate(-19.5 -19.5)"/>
  <path class="cls-1" d="M475,166.69C439.76,80.74,354.5,19.5,256,19.5S72.23,80.76,37,166.69A41.54,41.54,0,0,0,19.5,200.57V311.43A41.54,41.54,0,0,0,37,345.31C72.24,431.26,157.5,492.5,256,492.5s183.77-61.26,219-147.19a41.54,41.54,0,0,0,17.52-33.88V200.57A41.54,41.54,0,0,0,475,166.69ZM440.81,159H370c-8.81-37.74-22.55-70.22-40-94.47q-1.83-2.53-3.71-4.94A211.35,211.35,0,0,1,440.81,159ZM269.86,49.54c37.92,12.73,61.63,70.13,71.58,109.46H269.86Zm-27.72,0V159H170.56c8-31.45,19.58-58.27,34-78.26C213.22,68.73,226.1,54.92,242.14,49.54ZM185.79,59.59c-1.25,1.6-2.49,3.24-3.71,4.94-17.49,24.25-31.24,56.73-40,94.47H71.19A211.35,211.35,0,0,1,185.79,59.59ZM71.19,353H142c8.06,34.56,21.92,71.43,43.75,99.41A211.35,211.35,0,0,1,71.19,353Zm171,109.46c-37.92-12.73-61.63-70.13-71.58-109.46h71.58Zm27.72,0V352.82h71.58C331.47,392.2,307.7,449.76,269.86,462.46Zm56.35-10c21.83-28,35.69-65,43.75-99.59h70.85A211.67,211.67,0,0,1,326.21,452.41Zm138.58-141a13.88,13.88,0,0,1-13.86,13.86H61.07a13.88,13.88,0,0,1-13.86-13.86V200.57a13.88,13.88,0,0,1,13.86-13.86H450.93a13.88,13.88,0,0,1,13.86,13.86Z" transform="translate(-19.5 -19.5)"/>
</svg>
